<?xml version="1.0" encoding="UTF-8"?>
<svg id="Livello_2" data-name="Livello 2" xmlns="http://www.w3.org/2000/svg" viewBox="0 0 408.2 165.02">
  <g id="Livello_1-2" data-name="Livello 1">
    <path d="M27.74,165.02c-15.3,0-27.74-12.44-27.74-27.74V27.74C0,12.44,12.44,0,27.74,0s27.74,12.44,27.74,27.74v109.54c0,15.3-12.44,27.74-27.74,27.74ZM27.74,25c-1.51,0-2.74,1.23-2.74,2.74v109.54c0,1.51,1.23,2.74,2.74,2.74s2.74-1.23,2.74-2.74V27.74c0-1.51-1.23-2.74-2.74-2.74Z"/>
    <path d="M217.92,165.02h-30.48c-6.9,0-12.5-5.6-12.5-12.5V12.5c0-6.9,5.6-12.5,12.5-12.5s12.5,5.6,12.5,12.5v127.52h17.98c6.9,0,12.5,5.6,12.5,12.5s-5.6,12.5-12.5,12.5Z"/>
    <path d="M245.75,165.02c-6.9,0-12.5-5.6-12.5-12.5V12.5c0-6.9,5.6-12.5,12.5-12.5s12.5,5.6,12.5,12.5v140.02c0,6.9-5.6,12.5-12.5,12.5Z"/>
    <path d="M319.31,165.02c-15.3,0-27.74-12.44-27.74-27.74V27.74c0-1.51-1.23-2.74-2.74-2.74s-2.74,1.23-2.74,2.74v124.78c0,6.9-5.6,12.5-12.5,12.5s-12.5-5.6-12.5-12.5V27.74C261.09,12.45,273.53,0,288.83,0s27.74,12.44,27.74,27.74v109.54c0,1.51,1.23,2.74,2.74,2.74s2.74-1.23,2.74-2.74V12.5c0-6.9,5.6-12.5,12.5-12.5s12.5,5.6,12.5,12.5v124.78c0,15.3-12.44,27.74-27.74,27.74Z"/>
    <path d="M395.7,140.02h-17.98v-45.01h10.84c6.9,0,12.5-5.6,12.5-12.5s-5.6-12.5-12.5-12.5h-10.84V25h17.98c6.9,0,12.5-5.6,12.5-12.5S402.6,0,395.7,0h-30.48c-6.9,0-12.5,5.6-12.5,12.5v140.02c0,6.9,5.6,12.5,12.5,12.5h30.48c6.9,0,12.5-5.6,12.5-12.5s-5.6-12.5-12.5-12.5Z"/>
    <path d="M159.61,25c6.9,0,12.5-5.6,12.5-12.5S166.51,0,159.61,0h-30.48c-6.9,0-12.5,5.6-12.5,12.5v140.02c0,6.9,5.6,12.5,12.5,12.5s12.5-5.6,12.5-12.5v-57.51h10.84c6.9,0,12.5-5.6,12.5-12.5s-5.6-12.5-12.5-12.5h-10.84V25h17.98Z"/>
    <path d="M101.29,25c6.9,0,12.5-5.6,12.5-12.5S108.2,0,101.29,0h-30.48C63.91,0,58.31,5.6,58.31,12.5v140.02c0,6.9,5.6,12.5,12.5,12.5s12.5-5.6,12.5-12.5v-57.51h10.84c6.9,0,12.5-5.6,12.5-12.5s-5.6-12.5-12.5-12.5h-10.84V25h17.98Z"/>
  </g>
</svg>